#!OML:ASF F:\VICON\USERDATA\INSTALL\rory3\rory3.ASF
:FULLY-SPECIFIED
:DEGREES
3867
root 0.000993884 10.9497 -6.6277 -21.6734 -79.8254 23.9083
lowerback 45.0198 3.89078 -0.625698
upperback 16.9096 2.02916 0.681014
thorax -1.9411 -0.0133004 0.311254
lowerneck -8.33744 3.0358 -2.53641
upperneck -0.248575 4.17745 3.7387
head 1.20327 2.15232 1.75625
rclavicle -1.43125e-014 2.66371e-014
rhumerus -46.9946 47.8532 -97.7168
rradius 61.4142
rwrist 11.3977
rhand -54.0546 16.8057
rfingers 7.12502
rthumb -26.4756 -11.3648
lclavicle -1.43125e-014 2.66371e-014
lhumerus -46.6417 -56.5407 106.278
lradius 56.4828
lwrist 2.87357
lhand -48.6039 37.6914
lfingers 7.12502
lthumb -21.2485 66.5467
rfemur -89.6662 -19.4416 7.04912
rtibia 111.823
rfoot -23.2496 4.30046
rtoes -14.5708
lfemur -90.6761 7.89718 -11.9466
ltibia 97.9816
lfoot -9.05145 -9.67983
ltoes -21.6356
3868
root 0.0445717 10.9081 -6.63758 -22.6325 -79.9428 24.102
lowerback 45.1254 4.18319 -0.910077
upperback 16.796 2.28592 0.911625
thorax -2.11623 0.0796973 0.601077
lowerneck -8.82043 3.24919 -2.32272
upperneck -0.00585113 4.4581 3.21353
head 1.36951 2.28697 1.57711
rclavicle 8.74653e-015 8.34896e-015
rhumerus -47.9656 47.7911 -98.0252
rradius 61.9463
rwrist 10.3965
rhand -54.1429 15.4622
rfingers 7.12502
rthumb -26.5601 -12.6955
lclavicle 8.74653e-015 8.34896e-015
lhumerus -47.5427 -56.6523 107.179
lradius 56.8127
lwrist 3.30295
lhand -49.2818 41.99
lfingers 7.12502
lthumb -21.8996 70.7706
rfemur -89.2668 -19.3363 6.96258
rtibia 112.027
rfoot -23.2234 4.42517
rtoes -14.8482
lfemur -90.1568 8.00493 -11.8446
ltibia 98.1426
lfoot -8.98245 -9.79173
ltoes -21.6305
3869
root 0.0851733 10.8534 -6.64661 -18.7458 -80.2639 19.7815
lowerback 44.8605 3.93533 -0.0638152
upperback 16.6321 2.36777 0.83629
thorax -2.20184 0.179314 0.0669171
lowerneck -8.9909 3.41857 -1.72001
upperneck -0.14687 4.63201 2.87904
head 1.36656 2.36696 1.37373
rclavicle 6.36111e-015 -2.50469e-014
rhumerus -48.87 47.618 -98.9092
rradius 62.0345
rwrist 10.7353
rhand -53.8709 16.8527
rfingers 7.12502
rthumb -26.2997 -11.3442
lclavicle 6.36111e-015 -2.50469e-014
lhumerus -48.6147 -57.0506 107.523
lradius 57.3705
lwrist 4.04543
lhand -49.6947 43.1388
lfingers 7.12502
lthumb -22.2961 71.8725
rfemur -89.3122 -19.0571 7.8449
rtibia 112.223
rfoot -23.1415 4.22463
rtoes -15.0694
lfemur -90.3312 8.34789 -10.9797
ltibia 98.377
lfoot -8.71252 -10.1558
ltoes -21.2968
3870
root 0.124185 10.7983 -6.65629 -14.5123 -80.4409 15.1494
lowerback 44.5647 3.76076 0.510682
upperback 16.5202 2.43857 1.04745
thorax -2.24049 0.236904 -0.0230722
lowerneck -9.19709 3.5514 -1.67361
upperneck -0.589086 4.81905 2.55194
head 1.26243 2.45252 1.26483
rclavicle 3.10104e-014 -1.23246e-014
rhumerus -49.6588 47.8789 -99.2933
rradius 62.3213
rwrist 10.8123
rhand -54.1625 16.5608
rfingers 7.12502
rthumb -26.5789 -11.5941
lclavicle 3.10104e-014 -1.23246e-014
lhumerus -49.5321 -57.1846 107.919
lradius 58.0137
lwrist 4.84815
lhand -49.8069 41.6245
lfingers 7.12502
lthumb -22.4037 70.3452
rfemur -89.3732 -18.881 8.69953
rtibia 112.433
rfoot -23.0291 4.10267
rtoes -14.9997
lfemur -90.564 8.63594 -10.1622
ltibia 98.6103
lfoot -8.38425 -10.6412
ltoes -20.7306
3871
root 0.165054 10.7468 -6.66963 -10.4739 -80.5909 10.5983
lowerback 44.3734 3.71814 0.905097
upperback 16.4249 2.59047 1.38094
thorax -2.29765 0.311928 0.0756038
lowerneck -9.44557 3.66969 -1.84461
upperneck -0.91122 5.00711 2.25645
head 1.1998 2.54076 1.2072
rclavicle -3.10104e-014 -9.54166e-015
rhumerus -50.3992 48.2703 -99.4666
rradius 62.866
rwrist 9.94895
rhand -54.6964 14.3138
rfingers 7.12502
rthumb -27.0897 -13.7626
lclavicle -3.10104e-014 -9.54166e-015
lhumerus -49.9977 -57.3823 108.552
lradius 58.3169
lwrist 5.70055
lhand -49.63 41.3483
lfingers 7.12502
lthumb -22.2339 70.0894
rfemur -89.2583 -18.6318 9.49383
rtibia 112.63
rfoot -22.9663 3.94285
rtoes -14.769
lfemur -90.6402 8.95892 -9.37128
ltibia 98.8375
lfoot -7.97161 -11.1178
ltoes -20.3271
3872
root 0.209883 10.702 -6.67764 -10.7961 -80.623 10.2048
lowerback 44.2947 3.77444 0.952866
upperback 16.3783 2.69263 1.4382
thorax -2.33052 0.36149 0.0745156
lowerneck -9.57339 3.73991 -1.81998
upperneck -1.17368 5.1037 2.07535
head 1.1397 2.58475 1.1473
rclavicle 2.78299e-014 -2.5842e-014
rhumerus -51.2759 48.3541 -99.9594
rradius 63.1777
rwrist 9.62648
rhand -56.1893 10.4888
rfingers 7.12502
rthumb -28.5172 -17.3569
lclavicle 2.78299e-014 -2.5842e-014
lhumerus -51.1018 -57.8457 109.315
lradius 58.896
lwrist 6.6692
lhand -49.2035 41.2115
lfingers 7.12502
lthumb -21.8244 70.0008
rfemur -88.8991 -18.6312 9.40674
rtibia 112.85
rfoot -22.8345 4.18301
rtoes -14.3957
lfemur -90.2696 8.98983 -9.21627
ltibia 99.033
lfoot -7.61342 -11.2634
ltoes -19.4263
3873
root 0.253197 10.6678 -6.67826 -17.3292 -80.3882 15.7471
lowerback 44.3749 3.87789 0.423485
upperback 16.4449 2.57002 1.08525
thorax -2.28272 0.294047 0.0135981
lowerneck -9.83586 3.86865 -1.48337
upperneck -1.21709 5.24252 1.87477
head 1.18065 2.64899 1.03876
rclavicle -7.15625e-015 -2.54444e-014
rhumerus -51.9718 48.1631 -100.623
rradius 63.351
rwrist 9.77666
rhand -57.2712 7.23378
rfingers 7.12502
rthumb -29.5504 -20.434
lclavicle -7.15625e-015 -2.54444e-014
lhumerus -52.0279 -58.535 110.021
lradius 59.0982
lwrist 7.77716
lhand -48.9469 41.3124
lfingers 7.12502
lthumb -21.578 70.1303
rfemur -88.1581 -19.1058 8.05959
rtibia 113.108
rfoot -22.6903 5.01155
rtoes -13.9874
lfemur -89.2587 8.58688 -10.0828
ltibia 99.1735
lfoot -7.59594 -11.1112
ltoes -18.6937
